<svg xmlns="http://www.w3.org/2000/svg" xmlns:xlink="http://www.w3.org/1999/xlink" width="500" zoomAndPan="magnify" viewBox="0 0 375 374.999991" height="500" preserveAspectRatio="xMidYMid meet" version="1.0"><defs><g/><clipPath id="3ea6f85ff6"><path d="M 159 38.207031 L 201 38.207031 L 201 187 L 159 187 Z M 159 38.207031 " clip-rule="nonzero"/></clipPath><clipPath id="8dc010f92a"><path d="M 34.945312 175 L 322.195312 175 L 322.195312 262.457031 L 34.945312 262.457031 Z M 34.945312 175 " clip-rule="nonzero"/></clipPath></defs><path fill="#231f20" d="M 142.664062 161.722656 L 142.664062 194.207031 L 141.160156 195.113281 L 138.414062 196.773438 L 138.414062 160.585938 L 142.664062 161.722656 " fill-opacity="1" fill-rule="nonzero"/><path fill="#231f20" d="M 149.605469 155.789062 L 149.605469 190.03125 L 148.109375 190.933594 L 147.664062 191.207031 L 147.664062 157.214844 L 138.414062 154.320312 L 138.414062 152.28125 L 149.605469 155.789062 " fill-opacity="1" fill-rule="nonzero"/><path fill="#0b1f38" d="M 157.019531 40.285156 L 157.019531 185.574219 L 155.515625 186.476562 L 152.515625 188.285156 L 152.515625 153.652344 L 150.476562 153.011719 L 138.414062 149.230469 L 138.414062 64.328125 L 157.019531 40.285156 " fill-opacity="1" fill-rule="nonzero"/><path fill="#737575" d="M 167.652344 49.976562 L 167.652344 179.164062 L 170.574219 177.40625 L 172.078125 176.503906 L 172.078125 51.167969 Z M 189.507812 55.851562 L 189.507812 179.183594 L 191.011719 180.089844 L 193.929688 181.855469 L 193.929688 57.035156 Z M 189.507812 55.851562 L 189.507812 179.183594 L 191.011719 180.089844 L 193.929688 181.855469 L 193.929688 57.035156 Z M 167.652344 49.976562 L 167.652344 179.164062 L 170.574219 177.40625 L 172.078125 176.503906 L 172.078125 51.167969 Z M 167.652344 49.976562 L 167.652344 179.164062 L 170.574219 177.40625 L 172.078125 176.503906 L 172.078125 51.167969 Z M 189.507812 55.851562 L 189.507812 179.183594 L 191.011719 180.089844 L 193.929688 181.855469 L 193.929688 57.035156 Z M 189.507812 55.851562 L 189.507812 179.183594 L 191.011719 180.089844 L 193.929688 181.855469 L 193.929688 57.035156 Z M 167.652344 49.976562 L 167.652344 179.164062 L 170.574219 177.40625 L 172.078125 176.503906 L 172.078125 51.167969 Z M 167.652344 49.976562 L 167.652344 179.164062 L 170.574219 177.40625 L 172.078125 176.503906 L 172.078125 51.167969 Z M 189.507812 55.851562 L 189.507812 179.183594 L 191.011719 180.089844 L 193.929688 181.855469 L 193.929688 57.035156 Z M 189.507812 55.851562 L 189.507812 179.183594 L 191.011719 180.089844 L 193.929688 181.855469 L 193.929688 57.035156 Z M 167.652344 49.976562 L 167.652344 179.164062 L 170.574219 177.40625 L 172.078125 176.503906 L 172.078125 51.167969 Z M 189.507812 55.851562 L 189.507812 179.183594 L 191.011719 180.089844 L 193.929688 181.855469 L 193.929688 57.035156 Z M 167.652344 49.976562 L 167.652344 179.164062 L 170.574219 177.40625 L 172.078125 176.503906 L 172.078125 51.167969 Z M 167.652344 49.976562 L 167.652344 179.164062 L 170.574219 177.40625 L 172.078125 176.503906 L 172.078125 51.167969 Z M 189.507812 55.851562 L 189.507812 179.183594 L 191.011719 180.089844 L 193.929688 181.855469 L 193.929688 57.035156 Z M 189.507812 55.851562 L 189.507812 179.183594 L 191.011719 180.089844 L 193.929688 181.855469 L 193.929688 57.035156 Z M 167.652344 49.976562 L 167.652344 179.164062 L 170.574219 177.40625 L 172.078125 176.503906 L 172.078125 51.167969 Z M 167.652344 49.976562 L 167.652344 179.164062 L 170.574219 177.40625 L 172.078125 176.503906 L 172.078125 51.167969 Z M 189.507812 55.851562 L 189.507812 179.183594 L 191.011719 180.089844 L 193.929688 181.855469 L 193.929688 57.035156 Z M 189.507812 55.851562 L 189.507812 179.183594 L 191.011719 180.089844 L 193.929688 181.855469 L 193.929688 57.035156 Z M 167.652344 49.976562 L 167.652344 179.164062 L 170.574219 177.40625 L 172.078125 176.503906 L 172.078125 51.167969 L 167.652344 49.976562 " fill-opacity="1" fill-rule="nonzero"/><path fill="#737575" d="M 193.929688 57.035156 L 193.929688 181.855469 L 191.011719 180.089844 L 189.507812 179.183594 L 189.507812 55.851562 L 193.929688 57.035156 " fill-opacity="1" fill-rule="nonzero"/><path fill="#737575" d="M 183.007812 54.101562 L 183.007812 175.269531 L 180.375 173.695312 L 179.015625 172.339844 L 178.570312 172.601562 L 178.570312 52.917969 L 183.007812 54.101562 " fill-opacity="1" fill-rule="nonzero"/><path fill="#737575" d="M 172.078125 51.167969 L 172.078125 176.503906 L 170.574219 177.40625 L 167.652344 179.164062 L 167.652344 49.976562 L 172.078125 51.167969 " fill-opacity="1" fill-rule="nonzero"/><g clip-path="url(#3ea6f85ff6)"><path fill="#737575" d="M 159.675781 38.195312 L 159.675781 183.960938 L 160.113281 183.699219 L 161.617188 182.796875 L 161.617188 40.835938 L 198.925781 52.53125 L 198.925781 184.867188 L 200.421875 185.769531 L 200.871094 186.042969 L 200.871094 51.101562 L 159.675781 38.195312 " fill-opacity="1" fill-rule="nonzero"/></g><path fill="#0b1f38" d="M 215.542969 87.667969 L 215.542969 194.859375 L 205.285156 188.683594 L 203.78125 187.78125 L 203.78125 102.867188 L 215.542969 87.667969 " fill-opacity="1" fill-rule="nonzero"/><path fill="#737575" d="M 226.175781 97.367188 L 226.175781 201.269531 L 227.679688 202.171875 L 230.601562 203.929688 L 230.601562 98.566406 Z M 248.03125 103.246094 L 248.03125 214.417969 L 249.535156 215.324219 L 252.453125 217.078125 L 252.453125 104.429688 Z M 226.175781 97.367188 L 226.175781 201.269531 L 227.679688 202.171875 L 230.601562 203.929688 L 230.601562 98.566406 Z M 248.03125 103.246094 L 248.03125 214.417969 L 249.535156 215.324219 L 252.453125 217.078125 L 252.453125 104.429688 Z M 226.175781 97.367188 L 226.175781 201.269531 L 227.679688 202.171875 L 230.601562 203.929688 L 230.601562 98.566406 Z M 248.03125 103.246094 L 248.03125 214.417969 L 249.535156 215.324219 L 252.453125 217.078125 L 252.453125 104.429688 Z M 248.03125 103.246094 L 248.03125 214.417969 L 249.535156 215.324219 L 252.453125 217.078125 L 252.453125 104.429688 Z M 226.175781 97.367188 L 226.175781 201.269531 L 227.679688 202.171875 L 230.601562 203.929688 L 230.601562 98.566406 Z M 226.175781 97.367188 L 226.175781 201.269531 L 227.679688 202.171875 L 230.601562 203.929688 L 230.601562 98.566406 Z M 248.03125 103.246094 L 248.03125 214.417969 L 249.535156 215.324219 L 252.453125 217.078125 L 252.453125 104.429688 Z M 248.03125 103.246094 L 248.03125 214.417969 L 249.535156 215.324219 L 252.453125 217.078125 L 252.453125 104.429688 Z M 226.175781 97.367188 L 226.175781 201.269531 L 227.679688 202.171875 L 230.601562 203.929688 L 230.601562 98.566406 Z M 226.175781 97.367188 L 226.175781 201.269531 L 227.679688 202.171875 L 230.601562 203.929688 L 230.601562 98.566406 Z M 248.03125 103.246094 L 248.03125 214.417969 L 249.535156 215.324219 L 252.453125 217.078125 L 252.453125 104.429688 Z M 248.03125 103.246094 L 248.03125 214.417969 L 249.535156 215.324219 L 252.453125 217.078125 L 252.453125 104.429688 Z M 226.175781 97.367188 L 226.175781 201.269531 L 227.679688 202.171875 L 230.601562 203.929688 L 230.601562 98.566406 Z M 226.175781 97.367188 L 226.175781 201.269531 L 227.679688 202.171875 L 230.601562 203.929688 L 230.601562 98.566406 Z M 248.03125 103.246094 L 248.03125 214.417969 L 249.535156 215.324219 L 252.453125 217.078125 L 252.453125 104.429688 Z M 248.03125 103.246094 L 248.03125 214.417969 L 249.535156 215.324219 L 252.453125 217.078125 L 252.453125 104.429688 Z M 226.175781 97.367188 L 226.175781 201.269531 L 227.679688 202.171875 L 230.601562 203.929688 L 230.601562 98.566406 Z M 226.175781 97.367188 L 226.175781 201.269531 L 227.679688 202.171875 L 230.601562 203.929688 L 230.601562 98.566406 Z M 248.03125 103.246094 L 248.03125 214.417969 L 249.535156 215.324219 L 252.453125 217.078125 L 252.453125 104.429688 Z M 248.03125 103.246094 L 248.03125 214.417969 L 249.535156 215.324219 L 252.453125 217.078125 L 252.453125 104.429688 Z M 226.175781 97.367188 L 226.175781 201.269531 L 227.679688 202.171875 L 230.601562 203.929688 L 230.601562 98.566406 Z M 226.175781 97.367188 L 226.175781 201.269531 L 227.679688 202.171875 L 230.601562 203.929688 L 230.601562 98.566406 Z M 248.03125 103.246094 L 248.03125 214.417969 L 249.535156 215.324219 L 252.453125 217.078125 L 252.453125 104.429688 Z M 218.199219 85.589844 L 218.199219 196.460938 L 219.695312 197.363281 L 220.140625 197.625 L 220.140625 88.230469 L 257.453125 99.921875 L 257.453125 220.089844 L 258.949219 220.996094 L 259.394531 221.257812 L 259.394531 98.496094 Z M 248.03125 103.246094 L 248.03125 214.417969 L 249.535156 215.324219 L 252.453125 217.078125 L 252.453125 104.429688 Z M 226.175781 97.367188 L 226.175781 201.269531 L 227.679688 202.171875 L 230.601562 203.929688 L 230.601562 98.566406 Z M 248.03125 103.246094 L 248.03125 214.417969 L 249.535156 215.324219 L 252.453125 217.078125 L 252.453125 104.429688 Z M 226.175781 97.367188 L 226.175781 201.269531 L 227.679688 202.171875 L 230.601562 203.929688 L 230.601562 98.566406 Z M 226.175781 97.367188 L 226.175781 201.269531 L 227.679688 202.171875 L 230.601562 203.929688 L 230.601562 98.566406 Z M 248.03125 103.246094 L 248.03125 214.417969 L 249.535156 215.324219 L 252.453125 217.078125 L 252.453125 104.429688 Z M 248.03125 103.246094 L 248.03125 214.417969 L 249.535156 215.324219 L 252.453125 217.078125 L 252.453125 104.429688 Z M 226.175781 97.367188 L 226.175781 201.269531 L 227.679688 202.171875 L 230.601562 203.929688 L 230.601562 98.566406 Z M 226.175781 97.367188 L 226.175781 201.269531 L 227.679688 202.171875 L 230.601562 203.929688 L 230.601562 98.566406 Z M 248.03125 103.246094 L 248.03125 214.417969 L 249.535156 215.324219 L 252.453125 217.078125 L 252.453125 104.429688 Z M 248.03125 103.246094 L 248.03125 214.417969 L 249.535156 215.324219 L 252.453125 217.078125 L 252.453125 104.429688 Z M 226.175781 97.367188 L 226.175781 201.269531 L 227.679688 202.171875 L 230.601562 203.929688 L 230.601562 98.566406 Z M 226.175781 97.367188 L 226.175781 201.269531 L 227.679688 202.171875 L 230.601562 203.929688 L 230.601562 98.566406 Z M 248.03125 103.246094 L 248.03125 214.417969 L 249.535156 215.324219 L 252.453125 217.078125 L 252.453125 104.429688 Z M 248.03125 103.246094 L 248.03125 214.417969 L 249.535156 215.324219 L 252.453125 217.078125 L 252.453125 104.429688 Z M 226.175781 97.367188 L 226.175781 201.269531 L 227.679688 202.171875 L 230.601562 203.929688 L 230.601562 98.566406 Z M 226.175781 97.367188 L 226.175781 201.269531 L 227.679688 202.171875 L 230.601562 203.929688 L 230.601562 98.566406 Z M 248.03125 103.246094 L 248.03125 214.417969 L 249.535156 215.324219 L 252.453125 217.078125 L 252.453125 104.429688 Z M 248.03125 103.246094 L 248.03125 214.417969 L 249.535156 215.324219 L 252.453125 217.078125 L 252.453125 104.429688 Z M 226.175781 97.367188 L 226.175781 201.269531 L 227.679688 202.171875 L 230.601562 203.929688 L 230.601562 98.566406 L 226.175781 97.367188 " fill-opacity="1" fill-rule="nonzero"/><path fill="#737575" d="M 252.453125 104.429688 L 252.453125 217.078125 L 249.535156 215.324219 L 248.03125 214.417969 L 248.03125 103.246094 L 252.453125 104.429688 " fill-opacity="1" fill-rule="nonzero"/><path fill="#737575" d="M 241.527344 101.496094 L 241.527344 210.503906 L 238.597656 208.738281 L 237.09375 207.835938 L 237.09375 100.3125 L 241.527344 101.496094 " fill-opacity="1" fill-rule="nonzero"/><path fill="#737575" d="M 230.601562 98.566406 L 230.601562 203.929688 L 227.679688 202.171875 L 226.175781 201.269531 L 226.175781 97.367188 L 230.601562 98.566406 " fill-opacity="1" fill-rule="nonzero"/><path fill="#0b1f38" d="M 105.5 145.300781 L 105.5 216.59375 L 104.277344 217.332031 L 104.042969 217.460938 L 104.027344 217.476562 L 103.996094 217.488281 L 87.152344 227.636719 L 87.152344 169.015625 L 105.5 145.300781 " fill-opacity="1" fill-rule="nonzero"/><path fill="#737575" d="M 116.386719 154.660156 L 116.386719 210.03125 L 119.308594 208.273438 L 120.8125 207.371094 L 120.8125 155.855469 Z M 138.414062 160.585938 L 138.414062 196.773438 L 141.160156 195.113281 L 142.664062 194.207031 L 142.664062 161.722656 Z M 138.414062 160.585938 L 138.414062 196.773438 L 141.160156 195.113281 L 142.664062 194.207031 L 142.664062 161.722656 Z M 116.386719 154.660156 L 116.386719 210.03125 L 119.308594 208.273438 L 120.8125 207.371094 L 120.8125 155.855469 Z M 116.386719 154.660156 L 116.386719 210.03125 L 119.308594 208.273438 L 120.8125 207.371094 L 120.8125 155.855469 Z M 138.414062 160.585938 L 138.414062 196.773438 L 141.160156 195.113281 L 142.664062 194.207031 L 142.664062 161.722656 Z M 138.414062 160.585938 L 138.414062 196.773438 L 141.160156 195.113281 L 142.664062 194.207031 L 142.664062 161.722656 Z M 116.386719 154.660156 L 116.386719 210.03125 L 119.308594 208.273438 L 120.8125 207.371094 L 120.8125 155.855469 Z M 116.386719 154.660156 L 116.386719 210.03125 L 119.308594 208.273438 L 120.8125 207.371094 L 120.8125 155.855469 Z M 138.414062 160.585938 L 138.414062 196.773438 L 141.160156 195.113281 L 142.664062 194.207031 L 142.664062 161.722656 Z M 116.386719 154.660156 L 116.386719 210.03125 L 119.308594 208.273438 L 120.8125 207.371094 L 120.8125 155.855469 Z M 138.414062 160.585938 L 138.414062 196.773438 L 141.160156 195.113281 L 142.664062 194.207031 L 142.664062 161.722656 Z M 138.414062 152.28125 L 108.410156 142.882812 L 108.410156 214.835938 L 108.847656 214.574219 L 110.351562 213.671875 L 110.351562 145.519531 L 138.414062 154.320312 L 147.664062 157.214844 L 147.664062 191.207031 L 148.109375 190.933594 L 149.605469 190.03125 L 149.605469 155.789062 Z M 138.414062 160.585938 L 138.414062 196.773438 L 141.160156 195.113281 L 142.664062 194.207031 L 142.664062 161.722656 Z M 116.386719 154.660156 L 116.386719 210.03125 L 119.308594 208.273438 L 120.8125 207.371094 L 120.8125 155.855469 Z M 138.414062 160.585938 L 138.414062 196.773438 L 141.160156 195.113281 L 142.664062 194.207031 L 142.664062 161.722656 Z M 116.386719 154.660156 L 116.386719 210.03125 L 119.308594 208.273438 L 120.8125 207.371094 L 120.8125 155.855469 Z M 138.414062 160.585938 L 138.414062 196.773438 L 141.160156 195.113281 L 142.664062 194.207031 L 142.664062 161.722656 Z M 116.386719 154.660156 L 116.386719 210.03125 L 119.308594 208.273438 L 120.8125 207.371094 L 120.8125 155.855469 Z M 116.386719 154.660156 L 116.386719 210.03125 L 119.308594 208.273438 L 120.8125 207.371094 L 120.8125 155.855469 Z M 138.414062 160.585938 L 138.414062 196.773438 L 141.160156 195.113281 L 142.664062 194.207031 L 142.664062 161.722656 Z M 138.414062 160.585938 L 138.414062 196.773438 L 141.160156 195.113281 L 142.664062 194.207031 L 142.664062 161.722656 Z M 116.386719 154.660156 L 116.386719 210.03125 L 119.308594 208.273438 L 120.8125 207.371094 L 120.8125 155.855469 Z M 116.386719 154.660156 L 116.386719 210.03125 L 119.308594 208.273438 L 120.8125 207.371094 L 120.8125 155.855469 Z M 138.414062 160.585938 L 138.414062 196.773438 L 141.160156 195.113281 L 142.664062 194.207031 L 142.664062 161.722656 Z M 138.414062 160.585938 L 138.414062 196.773438 L 141.160156 195.113281 L 142.664062 194.207031 L 142.664062 161.722656 Z M 116.386719 154.660156 L 116.386719 210.03125 L 119.308594 208.273438 L 120.8125 207.371094 L 120.8125 155.855469 Z M 116.386719 154.660156 L 116.386719 210.03125 L 119.308594 208.273438 L 120.8125 207.371094 L 120.8125 155.855469 Z M 138.414062 160.585938 L 138.414062 196.773438 L 141.160156 195.113281 L 142.664062 194.207031 L 142.664062 161.722656 Z M 138.414062 160.585938 L 138.414062 196.773438 L 141.160156 195.113281 L 142.664062 194.207031 L 142.664062 161.722656 Z M 116.386719 154.660156 L 116.386719 210.03125 L 119.308594 208.273438 L 120.8125 207.371094 L 120.8125 155.855469 L 116.386719 154.660156 " fill-opacity="1" fill-rule="nonzero"/><path fill="#737575" d="M 131.738281 158.789062 L 131.738281 200.792969 L 130.234375 201.699219 L 127.304688 203.464844 L 127.304688 157.605469 L 131.738281 158.789062 " fill-opacity="1" fill-rule="nonzero"/><path fill="#737575" d="M 120.8125 155.855469 L 120.8125 207.371094 L 119.308594 208.273438 L 116.386719 210.03125 L 116.386719 154.660156 L 120.8125 155.855469 " fill-opacity="1" fill-rule="nonzero"/><g clip-path="url(#8dc010f92a)"><path fill="#737575" d="M 322.160156 262.445312 L 273.328125 262.445312 L 259.394531 254.054688 L 257.453125 252.886719 L 252.457031 249.875 L 248.03125 247.214844 L 241.527344 243.300781 L 237.09375 240.632812 L 230.601562 236.726562 L 226.175781 234.054688 L 220.140625 230.421875 L 218.203125 229.257812 L 215.542969 227.65625 L 203.78125 220.578125 L 200.871094 218.828125 L 198.925781 217.652344 L 193.929688 214.652344 L 189.507812 211.984375 L 183.007812 208.066406 L 178.570312 205.40625 L 178.5625 205.398438 L 172.078125 209.300781 L 167.652344 211.960938 L 161.617188 215.59375 L 159.675781 216.769531 L 157.019531 218.371094 L 152.515625 221.082031 L 149.605469 222.828125 L 147.664062 223.996094 L 142.667969 227.003906 L 138.417969 229.570312 L 138.242188 229.675781 L 131.738281 233.589844 L 127.304688 236.261719 L 120.8125 240.167969 L 116.386719 242.824219 L 110.351562 246.46875 L 108.410156 247.636719 L 105.753906 249.238281 L 105.5 249.382812 L 87.152344 260.433594 L 83.8125 262.445312 L 34.984375 262.445312 L 87.152344 231.039062 L 105.5 219.984375 L 105.753906 219.839844 L 108.410156 218.234375 L 110.351562 217.070312 L 116.386719 213.429688 L 120.8125 210.765625 L 127.304688 206.863281 L 131.738281 204.191406 L 138.242188 200.277344 L 138.417969 200.171875 L 142.667969 197.609375 L 147.664062 194.597656 L 149.605469 193.433594 L 152.515625 191.683594 L 157.019531 188.972656 L 159.675781 187.371094 L 161.617188 186.195312 L 167.652344 182.5625 L 172.078125 179.902344 L 178.5625 175.996094 L 178.570312 176.007812 L 183.007812 178.667969 L 189.507812 182.582031 L 193.929688 185.253906 L 198.925781 188.265625 L 200.871094 189.429688 L 203.78125 191.175781 L 215.542969 198.257812 L 218.203125 199.859375 L 220.140625 201.027344 L 226.175781 204.667969 L 230.601562 207.328125 L 237.09375 211.234375 L 241.527344 213.90625 L 248.03125 217.820312 L 252.457031 220.480469 L 257.453125 223.492188 L 259.394531 224.65625 L 322.160156 262.445312 " fill-opacity="1" fill-rule="nonzero"/></g><path fill="#0b1f38" d="M 176.34375 242.28125 L 163.210938 242.28125 L 163.210938 229.140625 L 176.34375 229.140625 L 176.34375 242.28125 " fill-opacity="1" fill-rule="nonzero"/><path fill="#0b1f38" d="M 193.929688 242.28125 L 180.796875 242.28125 L 180.796875 229.140625 L 193.929688 229.140625 L 193.929688 242.28125 " fill-opacity="1" fill-rule="nonzero"/><path fill="#0b1f38" d="M 176.34375 259.371094 L 163.210938 259.371094 L 163.210938 246.226562 L 176.34375 246.226562 L 176.34375 259.371094 " fill-opacity="1" fill-rule="nonzero"/><path fill="#0b1f38" d="M 193.929688 259.371094 L 180.796875 259.371094 L 180.796875 246.226562 L 193.929688 246.226562 L 193.929688 259.371094 " fill-opacity="1" fill-rule="nonzero"/><g fill="#000000" fill-opacity="1"><g transform="translate(2.103554, 297.462349)"><g><path d="M 6.277344 0 L 6.277344 -9.886719 L 17.242188 -9.886719 L 17.242188 -12.507812 L 6.277344 -12.507812 L 6.277344 -20.796875 L 18.890625 -20.796875 L 18.890625 -23.589844 L 3.210938 -23.589844 L 3.210938 0 Z M 6.277344 0 "/></g></g></g><g fill="#000000" fill-opacity="1"><g transform="translate(22.050114, 297.462349)"><g><path d="M 14 0.46875 C 20.972656 0.46875 26.625 -4.996094 26.625 -11.8125 C 26.625 -18.679688 20.972656 -24.109375 14 -24.109375 C 7.042969 -24.109375 1.40625 -18.679688 1.40625 -11.8125 C 1.40625 -4.996094 7.042969 0.46875 14 0.46875 Z M 14 -2.375 C 8.742188 -2.375 4.476562 -6.453125 4.476562 -11.8125 C 4.476562 -17.191406 8.726562 -21.285156 14 -21.285156 C 19.289062 -21.285156 23.554688 -17.191406 23.554688 -11.8125 C 23.554688 -6.453125 19.289062 -2.375 14 -2.375 Z M 14 -2.375 "/></g></g></g><g fill="#000000" fill-opacity="1"><g transform="translate(50.079368, 297.462349)"><g><path d="M 12.523438 0.484375 C 18.230469 0.484375 22.289062 -3.453125 22.289062 -9.140625 L 22.289062 -23.609375 L 19.21875 -23.609375 L 19.21875 -9.332031 C 19.21875 -5.480469 16.722656 -2.359375 12.523438 -2.359375 C 8.222656 -2.359375 5.8125 -5.535156 5.8125 -9.367188 L 5.8125 -23.609375 L 2.757812 -23.609375 L 2.757812 -9.140625 C 2.757812 -3.296875 7.023438 0.484375 12.523438 0.484375 Z M 12.523438 0.484375 "/></g></g></g><g fill="#000000" fill-opacity="1"><g transform="translate(75.125309, 297.462349)"><g><path d="M 6.277344 0 L 6.277344 -23.589844 L 3.210938 -23.589844 L 3.210938 0 Z M 6.277344 0 "/></g></g></g><g fill="#000000" fill-opacity="1"><g transform="translate(84.612943, 297.462349)"><g><path d="M 13.808594 0.449219 C 21.472656 0.449219 25.84375 -5.273438 25.828125 -12.417969 L 13.632812 -12.417969 L 13.632812 -9.644531 L 22.636719 -9.644531 C 21.996094 -5.601562 19.082031 -2.375 13.738281 -2.375 C 8.605469 -2.375 4.492188 -6.246094 4.492188 -11.8125 C 4.492188 -17.328125 8.605469 -21.285156 13.738281 -21.285156 C 17.535156 -21.285156 20.625 -19.375 21.941406 -16.148438 L 25.066406 -16.148438 C 23.796875 -21.195312 18.820312 -24.109375 13.808594 -24.109375 C 6.902344 -24.109375 1.421875 -18.679688 1.421875 -11.8125 C 1.421875 -4.996094 6.902344 0.449219 13.808594 0.449219 Z M 13.808594 0.449219 "/></g></g></g><g fill="#000000" fill-opacity="1"><g transform="translate(111.861688, 297.462349)"><g><path d="M 12.523438 0.484375 C 18.230469 0.484375 22.289062 -3.453125 22.289062 -9.140625 L 22.289062 -23.609375 L 19.21875 -23.609375 L 19.21875 -9.332031 C 19.21875 -5.480469 16.722656 -2.359375 12.523438 -2.359375 C 8.222656 -2.359375 5.8125 -5.535156 5.8125 -9.367188 L 5.8125 -23.609375 L 2.757812 -23.609375 L 2.757812 -9.140625 C 2.757812 -3.296875 7.023438 0.484375 12.523438 0.484375 Z M 12.523438 0.484375 "/></g></g></g><g fill="#000000" fill-opacity="1"><g transform="translate(136.907629, 297.462349)"><g><path d="M 6.277344 0 L 6.277344 -23.589844 L 3.210938 -23.589844 L 3.210938 0 Z M 6.277344 0 "/></g></g></g><g fill="#000000" fill-opacity="1"><g transform="translate(146.395263, 297.462349)"><g><path d="M 6.277344 0 L 6.277344 -8.863281 L 12.039062 -8.863281 C 12.296875 -8.863281 12.542969 -8.863281 12.800781 -8.882812 L 18.039062 0 L 21.578125 0 L 15.890625 -9.332031 C 18.992188 -10.164062 21.058594 -12.714844 21.058594 -16.183594 C 21.058594 -20.625 17.796875 -23.589844 13.234375 -23.589844 L 3.210938 -23.589844 L 3.210938 0 Z M 6.277344 -20.832031 L 13.113281 -20.832031 C 15.890625 -20.832031 17.988281 -18.855469 17.988281 -16.167969 C 17.988281 -13.375 15.921875 -11.5 13.164062 -11.484375 L 6.277344 -11.484375 Z M 6.277344 -20.832031 "/></g></g></g><g fill="#000000" fill-opacity="1"><g transform="translate(169.047618, 297.462349)"><g><path d="M 23.140625 0 L 13.164062 -23.589844 L 10.214844 -23.589844 L 0.226562 0 L 3.488281 0 L 5.722656 -5.34375 L 17.640625 -5.34375 L 19.878906 0 Z M 11.570312 -19.269531 L 11.671875 -19.671875 L 11.707031 -19.671875 L 11.796875 -19.269531 L 16.546875 -7.945312 L 6.816406 -7.945312 Z M 11.570312 -19.269531 "/></g></g></g><g fill="#000000" fill-opacity="1"><g transform="translate(192.41112, 297.462349)"><g/></g></g><g fill="#000000" fill-opacity="1"><g transform="translate(201.187607, 297.462349)"><g><path d="M 14.277344 0 C 17.953125 0 21.386719 -2.394531 21.386719 -6.660156 C 21.386719 -9.417969 19.394531 -11.742188 16.894531 -12.472656 C 18.648438 -13.234375 20.015625 -15.210938 20.015625 -17.378906 C 20.015625 -21.074219 17.207031 -23.589844 13.285156 -23.589844 L 3.210938 -23.589844 L 3.210938 0 Z M 6.3125 -20.917969 L 13.164062 -20.917969 C 15.246094 -20.917969 16.914062 -19.253906 16.914062 -17.15625 C 16.914062 -15.023438 15.246094 -13.355469 13.148438 -13.355469 L 6.3125 -13.355469 Z M 6.3125 -10.980469 L 14.066406 -10.980469 C 16.410156 -10.980469 18.230469 -9.140625 18.230469 -6.886719 C 18.230469 -4.492188 16.390625 -2.707031 14.03125 -2.707031 L 6.3125 -2.707031 Z M 6.3125 -10.980469 "/></g></g></g><g fill="#000000" fill-opacity="1"><g transform="translate(223.961384, 297.462349)"><g><path d="M 23.140625 0 L 13.164062 -23.589844 L 10.214844 -23.589844 L 0.226562 0 L 3.488281 0 L 5.722656 -5.34375 L 17.640625 -5.34375 L 19.878906 0 Z M 11.570312 -19.269531 L 11.671875 -19.671875 L 11.707031 -19.671875 L 11.796875 -19.269531 L 16.546875 -7.945312 L 6.816406 -7.945312 Z M 11.570312 -19.269531 "/></g></g></g><g fill="#000000" fill-opacity="1"><g transform="translate(247.324887, 297.462349)"><g><path d="M 11.378906 0 L 11.378906 -20.832031 L 18.855469 -20.832031 L 18.855469 -23.589844 L 0.851562 -23.589844 L 0.851562 -20.832031 L 8.308594 -20.832031 L 8.308594 0 Z M 11.378906 0 "/></g></g></g><g fill="#000000" fill-opacity="1"><g transform="translate(267.045973, 297.462349)"><g><path d="M 6.277344 0 L 6.277344 -23.589844 L 3.210938 -23.589844 L 3.210938 0 Z M 6.277344 0 "/></g></g></g><g fill="#000000" fill-opacity="1"><g transform="translate(276.533607, 297.462349)"><g><path d="M 6.277344 0 L 6.277344 -18.648438 L 14.378906 -7.753906 L 15.265625 -7.753906 L 23.417969 -18.628906 L 23.417969 0 L 26.488281 0 L 26.488281 -23.589844 L 23.796875 -23.589844 L 14.847656 -11.691406 L 14.832031 -11.691406 L 5.863281 -23.589844 L 3.210938 -23.589844 L 3.210938 0 Z M 6.277344 0 "/></g></g></g><g fill="#000000" fill-opacity="1"><g transform="translate(306.227964, 297.462349)"><g><path d="M 19.046875 0 L 19.046875 -2.773438 L 6.277344 -2.773438 L 6.277344 -10.683594 L 17.242188 -10.683594 L 17.242188 -13.320312 L 6.277344 -13.320312 L 6.277344 -20.796875 L 18.890625 -20.796875 L 18.890625 -23.589844 L 3.210938 -23.589844 L 3.210938 0 Z M 19.046875 0 "/></g></g></g><g fill="#000000" fill-opacity="1"><g transform="translate(326.521421, 297.462349)"><g><path d="M 20.347656 -5.101562 L 20.328125 -5.101562 L 5.792969 -23.589844 L 3.210938 -23.589844 L 3.210938 0 L 6.277344 0 L 6.277344 -18.4375 L 20.796875 0 L 23.398438 0 L 23.398438 -23.589844 L 20.347656 -23.589844 Z M 20.347656 -5.101562 "/></g></g></g><g fill="#000000" fill-opacity="1"><g transform="translate(353.128417, 297.462349)"><g><path d="M 11.378906 0 L 11.378906 -20.832031 L 18.855469 -20.832031 L 18.855469 -23.589844 L 0.851562 -23.589844 L 0.851562 -20.832031 L 8.308594 -20.832031 L 8.308594 0 Z M 11.378906 0 "/></g></g></g><g fill="#000000" fill-opacity="1"><g transform="translate(147.812651, 333.381922)"><g><path d="M 6.878906 0.195312 C 10.25 0.195312 12.054688 -1.511719 12.054688 -4.128906 C 12.054688 -7.363281 9.398438 -7.925781 6.976562 -8.449219 C 5 -8.875 3.199219 -9.261719 3.199219 -11.066406 C 3.199219 -12.480469 4.242188 -13.390625 6.238281 -13.390625 C 7.867188 -13.390625 9.476562 -12.730469 9.902344 -10.714844 L 11.628906 -10.714844 C 11.144531 -13.757812 8.757812 -14.980469 6.257812 -14.980469 C 3.371094 -14.980469 1.414062 -13.429688 1.414062 -10.910156 C 1.414062 -8.003906 3.875 -7.480469 6.183594 -6.996094 C 8.273438 -6.550781 10.269531 -6.125 10.269531 -4.011719 C 10.269531 -2.246094 9.03125 -1.394531 6.957031 -1.394531 C 5.117188 -1.394531 3.082031 -2.113281 2.617188 -4.476562 L 0.8125 -4.476562 C 1.316406 -1.164062 3.953125 0.195312 6.878906 0.195312 Z M 6.878906 0.195312 "/></g></g></g><g fill="#000000" fill-opacity="1"><g transform="translate(164.847065, 333.381922)"><g><path d="M 2.074219 0 L 3.371094 -3.625 L 10.078125 -3.625 L 11.375 0 L 13.179688 0 L 7.730469 -14.785156 L 5.71875 -14.785156 L 0.269531 0 Z M 6.722656 -12.964844 L 9.476562 -5.214844 L 3.972656 -5.214844 Z M 6.722656 -12.964844 "/></g></g></g><g fill="#000000" fill-opacity="1"><g transform="translate(182.288442, 333.381922)"><g><path d="M 9.070312 -6.570312 C 10.734375 -7.171875 11.722656 -8.566406 11.722656 -10.5625 C 11.722656 -13.410156 9.863281 -14.785156 7.035156 -14.785156 L 1.53125 -14.785156 L 1.53125 0 L 3.3125 0 L 3.3125 -6.238281 L 7.34375 -6.238281 L 9.960938 0 L 11.917969 0 Z M 3.3125 -7.828125 L 3.3125 -13.179688 L 6.800781 -13.179688 C 8.796875 -13.179688 9.960938 -12.207031 9.960938 -10.503906 C 9.960938 -8.777344 8.835938 -7.828125 6.800781 -7.828125 Z M 3.3125 -7.828125 "/></g></g></g><g fill="#000000" fill-opacity="1"><g transform="translate(199.070935, 333.381922)"><g><path d="M 9.941406 0 L 9.941406 -1.609375 L 3.3125 -1.609375 L 3.3125 -14.785156 L 1.53125 -14.785156 L 1.53125 0 Z M 9.941406 0 "/></g></g></g></svg>